<svg width="31" height="30" viewBox="0 0 31 30" fill="none" xmlns="http://www.w3.org/2000/svg">
<mask id="mask0_12_103" style="mask-type:alpha" maskUnits="userSpaceOnUse" x="0" y="0" width="31" height="30">
<rect x="0.333328" width="30" height="30" fill="#D9D9D9"/>
</mask>
<g mask="url(#mask0_12_103)">
<path d="M11.5833 23.75C11.1667 23.75 10.776 23.6562 10.4115 23.4688C10.0469 23.2812 9.74999 23.0208 9.52083 22.6875L4.08333 15L9.52083 7.3125C9.74999 6.97917 10.0469 6.71875 10.4115 6.53125C10.776 6.34375 11.1667 6.25 11.5833 6.25H24.0833C24.7708 6.25 25.3594 6.49479 25.849 6.98438C26.3385 7.47396 26.5833 8.0625 26.5833 8.75V21.25C26.5833 21.9375 26.3385 22.526 25.849 23.0156C25.3594 23.5052 24.7708 23.75 24.0833 23.75H11.5833ZM11.5833 21.25H24.0833V8.75H11.5833L7.14583 15L11.5833 21.25ZM14.5833 20L17.8333 16.75L21.0833 20L22.8333 18.25L19.5833 15L22.8333 11.75L21.0833 10L17.8333 13.25L14.5833 10L12.8333 11.75L16.0833 15L12.8333 18.25L14.5833 20Z" fill="white"/>
</g>
</svg>
